HIERARCHY
ROOT Hips
{
 OFFSET 0.000000 0.000000 0.000000
 CHANNELS 6 Xposition Yposition Zposition Yrotation Xrotation Zrotation
 JOINT Chest
 {
  OFFSET 0.000000 9.588913 -0.003946
  CHANNELS 3 Yrotation Xrotation Zrotation
  JOINT Chest2
  {
   OFFSET 0.000000 9.541882 0.008053
   CHANNELS 3 Yrotation Xrotation Zrotation
   JOINT Chest3
   {
    OFFSET 0.000000 9.501360 0.000000
    CHANNELS 3 Yrotation Xrotation Zrotation
    JOINT Chest4
    {
     OFFSET 0.000000 9.491660 0.000000
     CHANNELS 3 Yrotation Xrotation Zrotation
     JOINT Neck
     {
      OFFSET 0.000000 14.331917 0.000000
      CHANNELS 3 Yrotation Xrotation Zrotation
      JOINT Head
      {
       OFFSET 0.000000 8.884799 0.017034
       CHANNELS 3 Yrotation Xrotation Zrotation
       End Site
       {
        OFFSET 0.000000 16.896195 0.008993
       }
      }
     }
     JOINT RightCollar
     {
      OFFSET -2.923010 9.499495 0.000000
      CHANNELS 3 Yrotation Xrotation Zrotation
      JOINT RightShoulder
      {
       OFFSET -13.795216 0.000000 0.000000
       CHANNELS 3 Yrotation Xrotation Zrotation
       JOINT RightElbow
       {
        OFFSET -30.272209 0.000000 0.000000
        CHANNELS 3 Yrotation Xrotation Zrotation
        JOINT RightWrist
        {
         OFFSET -24.478199 0.000000 0.000000
         CHANNELS 3 Yrotation Xrotation Zrotation
         End Site
         {
          OFFSET -18.090752 0.000000 0.000000
         }
        }
       }
      }
     }
     JOINT LeftCollar
     {
      OFFSET 2.923010 9.499495 0.000000
      CHANNELS 3 Yrotation Xrotation Zrotation
      JOINT LeftShoulder
      {
       OFFSET 13.795216 0.000000 0.000000
       CHANNELS 3 Yrotation Xrotation Zrotation
       JOINT LeftElbow
       {
        OFFSET 30.272209 0.000000 0.000000
        CHANNELS 3 Yrotation Xrotation Zrotation
        JOINT LeftWrist
        {
         OFFSET 24.478199 0.000000 0.000000
         CHANNELS 3 Yrotation Xrotation Zrotation
         End Site
         {
          OFFSET 18.090752 0.000000 0.000000
         }
        }
       }
      }
     }
    }
   }
  }
 }
 JOINT RightHip
 {
  OFFSET -7.826875 0.019532 0.001973
  CHANNELS 3 Yrotation Xrotation Zrotation
  JOINT RightKnee
  {
   OFFSET 0.000000 -40.546152 -0.001885
   CHANNELS 3 Yrotation Xrotation Zrotation
   JOINT RightAnkle
   {
    OFFSET 0.000000 -39.417092 -0.003189
    CHANNELS 3 Yrotation Xrotation Zrotation
    JOINT RightToe
    {
     OFFSET 0.000000 -7.579396 17.243563
     CHANNELS 3 Yrotation Xrotation Zrotation
     End Site
     {
      OFFSET 0.000000 -1.500329 6.694466
     }
    }
   }
  }
 }
 JOINT LeftHip
 {
  OFFSET 7.826875 0.019532 0.001973
  CHANNELS 3 Yrotation Xrotation Zrotation
  JOINT LeftKnee
  {
   OFFSET 0.000000 -40.546152 -0.001885
   CHANNELS 3 Yrotation Xrotation Zrotation
   JOINT LeftAnkle
   {
    OFFSET 0.000000 -39.417092 -0.003189
    CHANNELS 3 Yrotation Xrotation Zrotation
    JOINT LeftToe
    {
     OFFSET 0.000000 -7.579396 17.243563
     CHANNELS 3 Yrotation Xrotation Zrotation
     End Site
     {
      OFFSET 0.000000 -1.500329 6.694466
     }
    }
   }
  }
 }
}
MOTION
Frames: 15
Frame Time: 0.008333
-21.917185 87.760876 -1.782338 -142.992178 -9.756314 0.647763 1.884431 3.947353 0.817833 1.005278 2.262493 0.680503 1.261040 2.826210 0.856996 1.005278 2.262493 0.680503 -17.248990 19.159513 -0.899615 -19.858963 -4.057973 3.065109 6.128822 -1.536238 2.017730 -26.283819 -22.494802 78.878925 -6.675061 -58.058296 101.890331 3.520167 -19.687597 22.066802 -1.174841 1.017187 -1.634980 -0.208922 -1.195944 -89.308282 -0.851385 -8.363844 -2.107132 -4.250452 -4.084171 1.182445 -9.525757 14.051506 -14.793432 2.933143 1.314332 -0.279455 -3.420772 -6.040552 9.357125 0.108636 -0.726868 0.047732 16.813503 14.054150 10.133040 13.625228 -0.858460 -0.235264 5.322218 -2.830465 -7.609127 0.081077 0.511786 0.043962
-21.912828 87.762705 -1.774594 -142.986738 -9.720514 0.646544 1.880771 3.949005 0.820099 1.003656 2.263898 0.681619 1.259022 2.827967 0.858385 1.003656 2.263898 0.681619 -17.425829 18.959087 -0.914779 -20.092151 -4.270736 3.095488 6.144878 -1.538140 2.016822 -26.315251 -22.470639 78.893185 -6.590958 -58.089803 101.838431 3.511606 -19.669813 22.065978 -1.186311 1.013752 -1.642954 -0.213398 -1.179614 -89.299041 -0.842767 -8.389284 -2.106360 -4.257239 -4.085298 1.183311 -9.518429 13.991130 -14.784880 2.941648 1.352009 -0.279112 -3.426219 -6.033832 9.362342 0.109374 -0.732573 0.045002 16.819682 14.002186 10.118328 13.608049 -0.844805 -0.222021 5.327164 -2.820628 -7.616287 0.080225 0.508211 0.045999
-21.908158 87.763780 -1.766996 -142.982403 -9.680974 0.646782 1.876283 3.948534 0.820441 1.001463 2.263768 0.681643 1.256281 2.827808 0.858402 1.001463 2.263768 0.681643 -17.595320 18.771850 -0.928185 -20.317017 -4.468705 3.126016 6.163925 -1.539777 2.018048 -26.349043 -22.452722 78.911791 -6.518430 -58.116274 101.779143 3.509386 -19.655093 22.058966 -1.198349 1.009135 -1.645901 -0.218324 -1.165723 -89.292477 -0.825014 -8.402830 -2.092735 -4.260226 -4.077444 1.181685 -9.516614 13.927951 -14.775193 2.947325 1.385486 -0.287077 -3.419307 -6.029817 9.370720 0.110261 -0.734082 0.043622 16.823840 13.949218 10.100453 13.592092 -0.834564 -0.208728 5.334627 -2.810191 -7.624137 0.080118 0.506383 0.048070
-21.902953 87.763850 -1.759437 -142.978317 -9.634896 0.647816 1.870113 3.944868 0.819601 0.998472 2.261464 0.680829 1.252530 2.824936 0.857358 0.998471 2.261464 0.680829 -17.755724 18.600949 -0.941956 -20.530404 -4.648559 3.153672 6.184797 -1.540341 2.017460 -26.375117 -22.440921 78.933820 -6.470557 -58.143437 101.725694 3.512585 -19.647619 22.048433 -1.207165 1.001959 -1.645194 -0.225039 -1.154943 -89.288193 -0.797236 -8.406198 -2.070873 -4.256775 -4.064294 1.181498 -9.515890 13.861577 -14.763340 2.951886 1.412756 -0.299888 -3.409361 -6.028402 9.380169 0.110597 -0.730329 0.043386 16.827091 13.892598 10.079698 13.580748 -0.828953 -0.196226 5.339746 -2.799642 -7.631752 0.080146 0.507519 0.049892
-21.897306 87.762830 -1.752371 -142.972250 -9.583750 0.647883 1.862532 3.938421 0.819345 0.994766 2.256953 0.679960 1.247883 2.819307 0.856237 0.994766 2.256953 0.679960 -17.907246 18.448166 -0.957226 -20.732012 -4.808241 3.177075 6.206315 -1.539420 2.013609 -26.392997 -22.436618 78.957829 -6.467079 -58.165043 101.700168 3.521831 -19.649011 22.038334 -1.213082 0.993130 -1.644699 -0.237064 -1.147018 -89.283543 -0.759549 -8.403114 -2.042789 -4.247884 -4.047733 1.178506 -9.514032 13.795484 -14.748049 2.957102 1.433217 -0.312619 -3.409470 -6.029060 9.387803 0.110039 -0.720755 0.043807 16.830648 13.833153 10.058713 13.573431 -0.828367 -0.185141 5.341275 -2.789997 -7.638622 0.080638 0.512630 0.051443
-21.891573 87.760779 -1.746628 -142.964703 -9.532278 0.645349 1.854833 3.931578 0.820243 0.991061 2.251537 0.679626 1.243237 2.812545 0.855780 0.991061 2.251537 0.679626 -18.049628 18.313300 -0.972829 -20.921620 -4.947983 3.197479 6.224738 -1.540746 2.007887 -26.409646 -22.440414 78.984504 -6.521544 -58.168162 101.717800 3.532863 -19.660056 22.030169 -1.220595 0.982369 -1.646127 -0.254097 -1.142644 -89.276977 -0.714105 -8.398099 -2.009523 -4.236307 -4.028923 1.170055 -9.509268 13.735150 -14.727893 2.961511 1.447367 -0.321282 -3.429465 -6.031145 9.391252 0.107555 -0.704986 0.044049 16.837228 13.775962 10.043369 13.568067 -0.833003 -0.178803 5.337579 -2.782161 -7.644526 0.081649 0.521491 0.053231
-21.886178 87.757789 -1.742688 -142.956676 -9.484297 0.640176 1.847343 3.925126 0.821366 0.987376 2.246136 0.679745 1.238620 2.805800 0.855891 0.987376 2.246136 0.679745 -18.181689 18.198426 -0.987118 -21.097842 -5.065413 3.216417 6.241886 -1.545557 2.003366 -26.434490 -22.451572 79.010823 -6.636231 -58.146311 101.786720 3.539132 -19.678865 22.022887 -1.231396 0.970247 -1.647135 -0.271163 -1.140994 -89.271904 -0.665924 -8.390630 -1.972371 -4.222127 -4.012425 1.158395 -9.503091 13.685528 -14.707172 2.962481 1.451952 -0.326352 -3.449948 -6.032681 9.393101 0.104495 -0.686760 0.043476 16.845519 13.724628 10.035242 13.565783 -0.840581 -0.177030 5.327004 -2.777597 -7.650451 0.083331 0.533359 0.055298
-21.881964 87.754002 -1.740626 -142.944987 -9.443655 0.635223 1.839248 3.919527 0.821249 0.983104 2.241218 0.679577 1.233268 2.799662 0.855641 0.983104 2.241218 0.679577 -18.304147 18.106510 -0.998409 -21.261820 -5.156795 3.235903 6.259926 -1.550813 2.001133 -26.466397 -22.466646 79.032430 -6.794599 -58.106302 101.897349 3.539434 -19.699931 22.018828 -1.245844 0.956380 -1.645479 -0.286521 -1.139321 -89.270705 -0.617453 -8.381255 -1.931940 -4.205393 -3.998399 1.143938 -9.502520 13.651457 -14.691118 2.957788 1.443590 -0.330072 -3.462584 -6.032279 9.396435 0.101832 -0.667508 0.041395 16.846542 13.682217 10.028609 13.566194 -0.847142 -0.175951 5.315918 -2.777374 -7.655941 0.085350 0.547405 0.056253
-21.879221 87.749512 -1.740199 -142.930676 -9.410751 0.632802 1.831347 3.915210 0.819664 0.978871 2.237240 0.678804 1.227963 2.794699 0.854638 0.978871 2.237240 0.678804 -18.418273 18.036975 -1.005369 -21.415478 -5.222536 3.257794 6.275695 -1.556035 1.997830 -26.491567 -22.479188 79.050170 -6.963860 -58.065152 102.020079 3.538496 -19.714979 22.020398 -1.264843 0.939424 -1.643540 -0.303473 -1.137374 -89.268565 -0.569735 -8.373861 -1.890836 -4.187111 -3.980657 1.125509 -9.509264 13.631815 -14.681650 2.949528 1.423326 -0.332446 -3.471545 -6.030661 9.401680 0.099651 -0.646545 0.037572 16.837614 13.650612 10.019089 13.567309 -0.853959 -0.174431 5.312220 -2.780192 -7.659387 0.086699 0.563048 0.055315
-21.877298 87.744364 -1.741281 -142.917121 -9.383025 0.630958 1.825256 3.911453 0.817587 0.975534 2.233712 0.678105 1.223779 2.790298 0.853734 0.975534 2.233712 0.678105 -18.524754 17.989712 -1.007819 -21.559652 -5.262632 3.282447 6.287235 -1.562488 1.992330 -26.504592 -22.485527 79.063902 -7.109137 -58.036153 102.120829 3.538942 -19.719310 22.025273 -1.287582 0.920805 -1.643950 -0.324402 -1.135206 -89.261220 -0.528209 -8.365387 -1.852949 -4.166230 -3.957114 1.104098 -9.521367 13.621656 -14.676270 2.943009 1.394200 -0.334004 -3.474333 -6.028594 9.407921 0.097833 -0.625293 0.033263 16.823702 13.627072 10.009405 13.570387 -0.862062 -0.173968 5.314363 -2.786231 -7.660501 0.087568 0.580629 0.053126
-21.875912 87.738742 -1.744271 -142.904284 -9.361622 0.627113 1.821237 3.908378 0.815219 0.973181 2.230280 0.677678 1.220827 2.786014 0.853176 0.973181 2.230280 0.677678 -18.624009 17.967278 -1.005070 -21.694888 -5.273903 3.310668 6.293829 -1.569583 1.989087 -26.510883 -22.487101 79.070887 -7.199807 -58.020146 102.170152 3.542624 -19.715116 22.027629 -1.310933 0.903090 -1.643756 -0.351038 -1.132529 -89.251717 -0.497621 -8.348174 -1.817342 -4.145313 -3.929358 1.081296 -9.537430 13.621423 -14.671007 2.938965 1.358853 -0.333987 -3.476574 -6.026284 9.411952 0.096045 -0.604299 0.029976 16.809581 13.610852 10.005552 13.574884 -0.869684 -0.177094 5.317545 -2.796544 -7.660593 0.088528 0.599841 0.051346
-21.875202 87.732849 -1.749044 -142.893617 -9.346492 0.622747 1.819549 3.905786 0.811923 0.971773 2.227337 0.677047 1.219057 2.782339 0.852371 0.971773 2.227337 0.677047 -18.715248 17.970082 -0.996411 -21.820212 -5.255899 3.343061 6.298248 -1.576553 1.988527 -26.514436 -22.488385 79.073618 -7.226207 -58.018204 102.155980 3.548644 -19.701825 22.024122 -1.332630 0.884689 -1.641242 -0.381743 -1.130068 -89.242353 -0.477080 -8.317993 -1.781823 -4.130328 -3.894746 1.058932 -9.553903 13.629514 -14.669826 2.935670 1.320479 -0.331696 -3.464558 -6.025628 9.413398 0.096556 -0.586279 0.028984 16.798418 13.602933 10.007519 13.578005 -0.878293 -0.184231 5.319366 -2.808906 -7.660954 0.089717 0.618781 0.050662
-21.875260 87.726869 -1.755163 -142.888687 -9.335801 0.620228 1.820683 3.903841 0.807976 0.971783 2.225108 0.675896 1.219059 2.779556 0.850925 0.971783 2.225108 0.675896 -18.797970 17.996021 -0.982444 -21.934792 -5.211195 3.378854 6.304175 -1.583873 1.985965 -26.514071 -22.489940 79.074381 -7.200352 -58.035096 102.089302 3.553373 -19.682825 22.016691 -1.352378 0.862975 -1.640652 -0.413067 -1.129272 -89.231355 -0.463720 -8.274702 -1.744067 -4.120128 -3.851016 1.036513 -9.566819 13.641039 -14.672241 2.931068 1.284093 -0.329926 -3.439618 -6.028784 9.413971 0.098326 -0.570723 0.029822 16.791483 13.603224 10.011041 13.578870 -0.890096 -0.192218 5.320701 -2.820275 -7.662859 0.091398 0.635492 0.050608
-21.876115 87.721051 -1.762586 -142.889982 -9.329520 0.619227 1.824214 3.903226 0.803785 0.973386 2.223536 0.674040 1.221048 2.777593 0.848610 0.973386 2.223536 0.674040 -18.872481 18.043866 -0.964238 -22.038737 -5.141227 3.416886 6.310337 -1.592183 1.982753 -26.505951 -22.489678 79.067861 -7.140766 -58.068077 101.993169 3.559551 -19.667135 22.006443 -1.369241 0.839897 -1.644012 -0.444094 -1.133335 -89.216909 -0.458577 -8.220622 -1.702249 -4.105818 -3.797914 1.011346 -9.575374 13.655498 -14.673453 2.925381 1.250967 -0.329960 -3.420072 -6.034662 9.413294 0.099153 -0.555374 0.031540 16.785764 13.611498 10.015019 13.578670 -0.904173 -0.200917 5.327319 -2.829977 -7.665817 0.093358 0.649539 0.051134
-21.877675 87.715616 -1.771098 -142.895086 -9.326656 0.618632 1.829053 3.903208 0.799132 0.975994 2.222180 0.671882 1.224293 2.775899 0.845924 0.975994 2.222180 0.671882 -18.939335 18.112237 -0.943885 -22.132237 -5.047638 3.454864 6.317397 -1.600004 1.981326 -26.495101 -22.488914 79.052613 -7.074316 -58.104455 101.894883 3.569225 -19.656454 21.994304 -1.381039 0.818697 -1.649721 -0.473653 -1.144402 -89.199034 -0.462896 -8.157421 -1.660708 -4.084621 -3.736771 0.985573 -9.581130 13.672486 -14.671940 2.922358 1.220385 -0.330406 -3.416109 -6.041405 9.409944 0.098409 -0.540105 0.034023 16.777926 13.625839 10.020514 13.580434 -0.919025 -0.212677 5.338419 -2.838086 -7.668173 0.094813 0.660990 0.051993
